<?xml version="1.0" encoding="UTF-8" standalone="no"?>
<!DOCTYPE svg PUBLIC "-//W3C//DTD SVG 1.1//EN"
 "http://www.w3.org/Graphics/SVG/1.1/DTD/svg11.dtd">
<!-- Generated by graphviz version 2.28.0 (20110507.0327)
 -->
<!-- Title: G Pages: 1 -->
<svg width="601pt" height="614pt"
 viewBox="0.00 0.00 601.00 614.00" xmlns="http://www.w3.org/2000/svg" xmlns:xlink="http://www.w3.org/1999/xlink">
<g id="graph1" class="graph" transform="scale(1 1) rotate(0) translate(4 610)">
<title>G</title>
<polygon fill="white" stroke="white" points="-4,5 -4,-610 598,-610 598,5 -4,5"/>
<!-- n19 -->
<g id="node1" class="node"><title>n19</title>
<polygon fill="lavenderblush" stroke="black" points="70.5766,-59.9197 70.5766,-97.9197 177.577,-97.9197 177.577,-59.9197 70.5766,-59.9197"/>
<text text-anchor="middle" x="124.077" y="-82.7197" font-family="Times New Roman,serif" font-size="14.00">«HTML»</text>
<text text-anchor="middle" x="124.077" y="-67.7197" font-family="Times New Roman,serif" font-size="14.00">view/article.html</text>
</g>
<!-- n2 -->
<g id="node2" class="node"><title>n2</title>
<polygon fill="lavenderblush" stroke="black" points="387.145,-129.296 387.145,-167.296 593.145,-167.296 593.145,-129.296 387.145,-129.296"/>
<text text-anchor="middle" x="490.145" y="-152.096" font-family="Times New Roman,serif" font-size="14.00">«HTML»</text>
<text text-anchor="middle" x="490.145" y="-137.096" font-family="Times New Roman,serif" font-size="14.00">website/blog/app/view/article.html</text>
</g>
<!-- n0 -->
<g id="node3" class="node"><title>n0</title>
<polygon fill="lavenderblush" stroke="black" points="196.748,-382.641 196.748,-420.641 369.748,-420.641 369.748,-382.641 196.748,-382.641"/>
<text text-anchor="middle" x="283.248" y="-405.441" font-family="Times New Roman,serif" font-size="14.00">«HTML»</text>
<text text-anchor="middle" x="283.248" y="-390.441" font-family="Times New Roman,serif" font-size="14.00">website/blog/app/index.html</text>
</g>
<!-- n3 -->
<g id="node5" class="node"><title>n3</title>
<polygon fill="palegreen" stroke="black" points="113.819,-529.917 113.819,-605.917 306.819,-605.917 306.819,-529.917 113.819,-529.917"/>
<text text-anchor="middle" x="210.319" y="-590.717" font-family="Times New Roman,serif" font-size="14.00">«CSS»</text>
<text text-anchor="middle" x="210.319" y="-575.717" font-family="Times New Roman,serif" font-size="14.00">website/blog/app/style/style.css</text>
<polyline fill="none" stroke="black" points="113.819,-567.917 306.819,-567.917 "/>
<text text-anchor="start" x="121.819" y="-552.717" font-family="Times New Roman,serif" font-size="14.00">.article_text</text>
<text text-anchor="start" x="121.819" y="-537.717" font-family="Times New Roman,serif" font-size="14.00">.article_title</text>
</g>
<!-- n0&#45;&gt;n3 -->
<g id="edge4" class="edge"><title>n0&#45;&gt;n3</title>
<path fill="none" stroke="black" d="M274.882,-420.715C264.326,-444.783 245.797,-487.027 231.289,-520.105"/>
<polygon fill="black" stroke="black" points="227.933,-519.043 227.122,-529.607 234.344,-521.855 227.933,-519.043"/>
</g>
<!-- n9 -->
<g id="node6" class="node"><title>n9</title>
<polygon fill="peru" stroke="black" points="377.748,-397.876 377.748,-488.876 489.748,-488.876 489.748,-397.876 377.748,-397.876"/>
<text text-anchor="middle" x="433.748" y="-473.676" font-family="Times New Roman,serif" font-size="14.00">«Forms»</text>
<text text-anchor="middle" x="433.748" y="-458.676" font-family="Times New Roman,serif" font-size="14.00">Form: addArticle</text>
<polyline fill="none" stroke="black" points="377.748,-450.876 489.748,-450.876 "/>
<text text-anchor="start" x="385.748" y="-435.676" font-family="Times New Roman,serif" font-size="14.00">text : textarea</text>
<text text-anchor="start" x="385.748" y="-420.676" font-family="Times New Roman,serif" font-size="14.00">title : input</text>
<text text-anchor="start" x="385.748" y="-405.676" font-family="Times New Roman,serif" font-size="14.00">submit : button</text>
</g>
<!-- n0&#45;&gt;n9 -->
<g id="edge10" class="edge"><title>n0&#45;&gt;n9</title>
<path fill="none" stroke="black" d="M351.891,-420.676C357.088,-422.117 362.327,-423.57 367.508,-425.007"/>
<polygon fill="black" stroke="black" points="366.803,-428.443 377.374,-427.743 368.673,-421.698 366.803,-428.443"/>
</g>
<!-- n1 -->
<g id="node7" class="node"><title>n1</title>
<polygon fill="aliceblue" stroke="black" points="0.250553,-288.917 0.250553,-372.917 188.251,-372.917 188.251,-288.917 0.250553,-288.917"/>
<text text-anchor="middle" x="94.2506" y="-357.717" font-family="Times New Roman,serif" font-size="14.00">«JavaScript»</text>
<text text-anchor="middle" x="94.2506" y="-342.717" font-family="Times New Roman,serif" font-size="14.00">website/blog/app/script/post.js</text>
<polyline fill="none" stroke="black" points="0.250553,-334.917 188.251,-334.917 "/>
<text text-anchor="start" x="8.25055" y="-319.717" font-family="Times New Roman,serif" font-size="14.00">server : string = localhost</text>
<polyline fill="none" stroke="black" points="0.250553,-311.917 188.251,-311.917 "/>
<text text-anchor="start" x="8.25055" y="-296.717" font-family="Times New Roman,serif" font-size="14.00">post()</text>
</g>
<!-- n0&#45;&gt;n1 -->
<g id="edge2" class="edge"><title>n0&#45;&gt;n1</title>
<path fill="none" stroke="black" d="M232.102,-382.502C221.406,-378.499 209.763,-374.143 197.927,-369.713"/>
<polygon fill="black" stroke="black" points="199,-366.378 188.407,-366.151 196.546,-372.934 199,-366.378"/>
</g>
<!-- n4 -->
<g id="node8" class="node"><title>n4</title>
<polygon fill="aliceblue" stroke="black" points="225.07,-194.601 225.07,-255.601 413.07,-255.601 413.07,-194.601 225.07,-194.601"/>
<text text-anchor="middle" x="319.07" y="-240.401" font-family="Times New Roman,serif" font-size="14.00">«JavaScript»</text>
<text text-anchor="middle" x="319.07" y="-225.401" font-family="Times New Roman,serif" font-size="14.00">website/blog/app/script/blog.js</text>
<polyline fill="none" stroke="black" points="225.07,-217.601 413.07,-217.601 "/>
<text text-anchor="start" x="233.07" y="-202.401" font-family="Times New Roman,serif" font-size="14.00">getArticles(container)</text>
</g>
<!-- n0&#45;&gt;n4 -->
<g id="edge8" class="edge"><title>n0&#45;&gt;n4</title>
<path fill="none" stroke="black" d="M287.15,-382.412C292.802,-354.557 303.402,-302.315 310.832,-265.703"/>
<polygon fill="black" stroke="black" points="314.278,-266.32 312.836,-255.824 307.417,-264.928 314.278,-266.32"/>
</g>
<!-- n17 -->
<g id="node4" class="node"><title>n17</title>
<polygon fill="orange" stroke="black" points="244.372,-0.223118 244.372,-46.2231 324.372,-46.2231 324.372,-0.223118 244.372,-0.223118"/>
<text text-anchor="middle" x="284.372" y="-31.0231" font-family="Times New Roman,serif" font-size="14.00">«AJAX»</text>
<polyline fill="none" stroke="black" points="244.372,-23.2231 324.372,-23.2231 "/>
<text text-anchor="start" x="252.372" y="-8.02312" font-family="Times New Roman,serif" font-size="14.00">Type: GET</text>
</g>
<!-- n17&#45;&gt;n19 -->
<g id="edge6" class="edge"><title>n17&#45;&gt;n19</title>
<path fill="none" stroke="black" d="M244.337,-37.134C227.122,-43.1154 206.582,-50.2524 187.39,-56.9209"/>
<polygon fill="black" stroke="black" points="186.098,-53.6645 177.8,-60.2528 188.395,-60.2767 186.098,-53.6645"/>
</g>
<!-- n4&#45;&gt;n17 -->
<g id="edge12" class="edge"><title>n4&#45;&gt;n17</title>
<path fill="none" stroke="black" d="M313.801,-194.44C307.406,-157.236 296.666,-94.7459 290.08,-56.4305"/>
<polygon fill="black" stroke="black" points="293.483,-55.5683 288.34,-46.3057 286.584,-56.7541 293.483,-55.5683"/>
</g>
</g>
</svg>
