<?xml version="1.0" encoding="UTF-8" standalone="no"?>
<!DOCTYPE svg PUBLIC "-//W3C//DTD SVG 1.1//EN"
 "http://www.w3.org/Graphics/SVG/1.1/DTD/svg11.dtd">
<!-- Generated by graphviz version 2.28.0 (20110507.0327)
 -->
<!-- Title: G Pages: 1 -->
<svg width="7578pt" height="1462pt"
 viewBox="0.00 0.00 7578.00 1462.00" xmlns="http://www.w3.org/2000/svg" xmlns:xlink="http://www.w3.org/1999/xlink">
<g id="graph1" class="graph" transform="scale(1 1) rotate(0) translate(4 1458)">
<title>G</title>
<polygon fill="white" stroke="white" points="-4,5 -4,-1458 7575,-1458 7575,5 -4,5"/>
<!-- website/archvis/buildFont.js -->
<g id="node1" class="node"><title>website/archvis/buildFont.js</title>
<polygon fill="aliceblue" stroke="black" points="-0.5,-881.5 -0.5,-1010.5 172.5,-1010.5 172.5,-881.5 -0.5,-881.5"/>
<text text-anchor="middle" x="86" y="-995.3" font-family="Times New Roman,serif" font-size="14.00">«JavaScript»</text>
<text text-anchor="middle" x="86" y="-980.3" font-family="Times New Roman,serif" font-size="14.00">website/archvis/buildFont.js</text>
<polyline fill="none" stroke="black" points="-0.5,-972.5 172.5,-972.5 "/>
<text text-anchor="start" x="7.5" y="-957.3" font-family="Times New Roman,serif" font-size="14.00">linePattern</text>
<text text-anchor="start" x="7.5" y="-942.3" font-family="Times New Roman,serif" font-size="14.00">lines</text>
<text text-anchor="start" x="7.5" y="-927.3" font-family="Times New Roman,serif" font-size="14.00">namePattern</text>
<text text-anchor="start" x="7.5" y="-912.3" font-family="Times New Roman,serif" font-size="14.00">match</text>
<polyline fill="none" stroke="black" points="-0.5,-904.5 172.5,-904.5 "/>
<text text-anchor="start" x="7.5" y="-889.3" font-family="Times New Roman,serif" font-size="14.00">generateFile()</text>
</g>
<!-- website/archvis/Gruntfile.js -->
<g id="node2" class="node"><title>website/archvis/Gruntfile.js</title>
<polygon fill="aliceblue" stroke="black" points="190.5,-904 190.5,-988 357.5,-988 357.5,-904 190.5,-904"/>
<text text-anchor="middle" x="274" y="-972.8" font-family="Times New Roman,serif" font-size="14.00">«JavaScript»</text>
<text text-anchor="middle" x="274" y="-957.8" font-family="Times New Roman,serif" font-size="14.00">website/archvis/Gruntfile.js</text>
<polyline fill="none" stroke="black" points="190.5,-950 357.5,-950 "/>
<text text-anchor="start" x="198.5" y="-934.8" font-family="Times New Roman,serif" font-size="14.00">done</text>
<polyline fill="none" stroke="black" points="190.5,-927 357.5,-927 "/>
<text text-anchor="start" x="198.5" y="-911.8" font-family="Times New Roman,serif" font-size="14.00">callback()</text>
</g>
<!-- website/archvis/lib/controllers/treeClass.js -->
<g id="node3" class="node"><title>website/archvis/lib/controllers/treeClass.js</title>
<polygon fill="aliceblue" stroke="black" points="196,-98.5 196,-287.5 446,-287.5 446,-98.5 196,-98.5"/>
<text text-anchor="middle" x="321" y="-272.3" font-family="Times New Roman,serif" font-size="14.00">«JavaScript»</text>
<text text-anchor="middle" x="321" y="-257.3" font-family="Times New Roman,serif" font-size="14.00">website/archvis/lib/controllers/treeClass.js</text>
<polyline fill="none" stroke="black" points="196,-249.5 446,-249.5 "/>
<text text-anchor="start" x="204" y="-234.3" font-family="Times New Roman,serif" font-size="14.00">constants</text>
<text text-anchor="start" x="204" y="-219.3" font-family="Times New Roman,serif" font-size="14.00">fs</text>
<text text-anchor="start" x="204" y="-204.3" font-family="Times New Roman,serif" font-size="14.00">path</text>
<text text-anchor="start" x="204" y="-189.3" font-family="Times New Roman,serif" font-size="14.00">keyNum</text>
<text text-anchor="start" x="204" y="-174.3" font-family="Times New Roman,serif" font-size="14.00">stats</text>
<text text-anchor="start" x="204" y="-159.3" font-family="Times New Roman,serif" font-size="14.00">result</text>
<polyline fill="none" stroke="black" points="196,-151.5 446,-151.5 "/>
<text text-anchor="start" x="204" y="-136.3" font-family="Times New Roman,serif" font-size="14.00">_directoryTree()</text>
<text text-anchor="start" x="204" y="-121.3" font-family="Times New Roman,serif" font-size="14.00">generateTreeData()</text>
<text text-anchor="start" x="204" y="-106.3" font-family="Times New Roman,serif" font-size="14.00">directoryTree()</text>
</g>
<!-- website/archvis/lib/controllers/scan.js -->
<g id="node4" class="node"><title>website/archvis/lib/controllers/scan.js</title>
<polygon fill="aliceblue" stroke="black" points="1406,-881 1406,-1011 1630,-1011 1630,-881 1406,-881"/>
<text text-anchor="middle" x="1518" y="-995.8" font-family="Times New Roman,serif" font-size="14.00">«JavaScript»</text>
<text text-anchor="middle" x="1518" y="-980.8" font-family="Times New Roman,serif" font-size="14.00">website/archvis/lib/controllers/scan.js</text>
<polyline fill="none" stroke="black" points="1406,-973 1630,-973 "/>
<text text-anchor="start" x="1414" y="-957.8" font-family="Times New Roman,serif" font-size="14.00">async</text>
<text text-anchor="start" x="1414" y="-942.8" font-family="Times New Roman,serif" font-size="14.00">fs</text>
<text text-anchor="start" x="1414" y="-927.8" font-family="Times New Roman,serif" font-size="14.00">url</text>
<text text-anchor="start" x="1414" y="-912.8" font-family="Times New Roman,serif" font-size="14.00">path</text>
<polyline fill="none" stroke="black" points="1406,-905 1630,-905 "/>
</g>
<!-- website/archvis/app/scripts/routes.js -->
<g id="node5" class="node"><title>website/archvis/app/scripts/routes.js</title>
<polygon fill="aliceblue" stroke="black" points="3348.5,-903.5 3348.5,-988.5 3567.5,-988.5 3567.5,-903.5 3348.5,-903.5"/>
<text text-anchor="middle" x="3458" y="-973.3" font-family="Times New Roman,serif" font-size="14.00">«JavaScript»</text>
<text text-anchor="middle" x="3458" y="-958.3" font-family="Times New Roman,serif" font-size="14.00">website/archvis/app/scripts/routes.js</text>
<polyline fill="none" stroke="black" points="3348.5,-950.5 3567.5,-950.5 "/>
<polyline fill="none" stroke="black" points="3348.5,-926.5 3567.5,-926.5 "/>
<text text-anchor="start" x="3356.5" y="-911.3" font-family="Times New Roman,serif" font-size="14.00">gotoHash()</text>
</g>
<!-- website/archvis/lib/controllers/tableClass.js -->
<g id="node6" class="node"><title>website/archvis/lib/controllers/tableClass.js</title>
<polygon fill="aliceblue" stroke="black" points="464,-1 464,-385 720,-385 720,-1 464,-1"/>
<text text-anchor="middle" x="592" y="-369.8" font-family="Times New Roman,serif" font-size="14.00">«JavaScript»</text>
<text text-anchor="middle" x="592" y="-354.8" font-family="Times New Roman,serif" font-size="14.00">website/archvis/lib/controllers/tableClass.js</text>
<polyline fill="none" stroke="black" points="464,-347 720,-347 "/>
<text text-anchor="start" x="472" y="-331.8" font-family="Times New Roman,serif" font-size="14.00">constants</text>
<text text-anchor="start" x="472" y="-316.8" font-family="Times New Roman,serif" font-size="14.00">fs</text>
<text text-anchor="start" x="472" y="-301.8" font-family="Times New Roman,serif" font-size="14.00">path</text>
<text text-anchor="start" x="472" y="-286.8" font-family="Times New Roman,serif" font-size="14.00">cyclomatic</text>
<text text-anchor="start" x="472" y="-271.8" font-family="Times New Roman,serif" font-size="14.00">paramsAgg</text>
<text text-anchor="start" x="472" y="-256.8" font-family="Times New Roman,serif" font-size="14.00">line</text>
<text text-anchor="start" x="472" y="-241.8" font-family="Times New Roman,serif" font-size="14.00">cyclomaticDensity</text>
<text text-anchor="start" x="472" y="-226.8" font-family="Times New Roman,serif" font-size="14.00">lngth</text>
<text text-anchor="start" x="472" y="-211.8" font-family="Times New Roman,serif" font-size="14.00">vocabulary</text>
<text text-anchor="start" x="472" y="-196.8" font-family="Times New Roman,serif" font-size="14.00">difficulty</text>
<text text-anchor="start" x="472" y="-181.8" font-family="Times New Roman,serif" font-size="14.00">volume</text>
<text text-anchor="start" x="472" y="-166.8" font-family="Times New Roman,serif" font-size="14.00">effort</text>
<text text-anchor="start" x="472" y="-151.8" font-family="Times New Roman,serif" font-size="14.00">bugs</text>
<text text-anchor="start" x="472" y="-136.8" font-family="Times New Roman,serif" font-size="14.00">time</text>
<text text-anchor="start" x="472" y="-121.8" font-family="Times New Roman,serif" font-size="14.00">functions</text>
<text text-anchor="start" x="472" y="-106.8" font-family="Times New Roman,serif" font-size="14.00">maintainability</text>
<text text-anchor="start" x="472" y="-91.8" font-family="Times New Roman,serif" font-size="14.00">params</text>
<text text-anchor="start" x="472" y="-76.8" font-family="Times New Roman,serif" font-size="14.00">operatorsDistinct</text>
<text text-anchor="start" x="472" y="-61.8" font-family="Times New Roman,serif" font-size="14.00">operatorsTotal</text>
<text text-anchor="start" x="472" y="-46.8" font-family="Times New Roman,serif" font-size="14.00">operandsDistinct</text>
<text text-anchor="start" x="472" y="-31.8" font-family="Times New Roman,serif" font-size="14.00">operandsTotal</text>
<polyline fill="none" stroke="black" points="464,-24 720,-24 "/>
<text text-anchor="start" x="472" y="-8.8" font-family="Times New Roman,serif" font-size="14.00">generateTableData()</text>
</g>
<!-- website/archvis/lib/main.js -->
<g id="node7" class="node"><title>website/archvis/lib/main.js</title>
<polygon fill="aliceblue" stroke="black" points="376,-776.5 376,-1115.5 538,-1115.5 538,-776.5 376,-776.5"/>
<text text-anchor="middle" x="457" y="-1100.3" font-family="Times New Roman,serif" font-size="14.00">«JavaScript»</text>
<text text-anchor="middle" x="457" y="-1085.3" font-family="Times New Roman,serif" font-size="14.00">website/archvis/lib/main.js</text>
<polyline fill="none" stroke="black" points="376,-1077.5 538,-1077.5 "/>
<text text-anchor="start" x="384" y="-1062.3" font-family="Times New Roman,serif" font-size="14.00">constants</text>
<text text-anchor="start" x="384" y="-1047.3" font-family="Times New Roman,serif" font-size="14.00">fs</text>
<text text-anchor="start" x="384" y="-1032.3" font-family="Times New Roman,serif" font-size="14.00">fsg</text>
<text text-anchor="start" x="384" y="-1017.3" font-family="Times New Roman,serif" font-size="14.00">relex</text>
<text text-anchor="start" x="384" y="-1002.3" font-family="Times New Roman,serif" font-size="14.00">wavi</text>
<text text-anchor="start" x="384" y="-987.3" font-family="Times New Roman,serif" font-size="14.00">treeClass</text>
<text text-anchor="start" x="384" y="-972.3" font-family="Times New Roman,serif" font-size="14.00">tableClass</text>
<text text-anchor="start" x="384" y="-957.3" font-family="Times New Roman,serif" font-size="14.00">prettyHrtime</text>
<text text-anchor="start" x="384" y="-942.3" font-family="Times New Roman,serif" font-size="14.00">process</text>
<text text-anchor="start" x="384" y="-927.3" font-family="Times New Roman,serif" font-size="14.00">start</text>
<text text-anchor="start" x="384" y="-912.3" font-family="Times New Roman,serif" font-size="14.00">generatedGraphFile</text>
<text text-anchor="start" x="384" y="-897.3" font-family="Times New Roman,serif" font-size="14.00">generatedTreeFile</text>
<text text-anchor="start" x="384" y="-882.3" font-family="Times New Roman,serif" font-size="14.00">generatedTableFile</text>
<text text-anchor="start" x="384" y="-867.3" font-family="Times New Roman,serif" font-size="14.00">generatedGraph</text>
<text text-anchor="start" x="384" y="-852.3" font-family="Times New Roman,serif" font-size="14.00">generatedDot</text>
<text text-anchor="start" x="384" y="-837.3" font-family="Times New Roman,serif" font-size="14.00">includenodemodules</text>
<text text-anchor="start" x="384" y="-822.3" font-family="Times New Roman,serif" font-size="14.00">grapheJSON</text>
<polyline fill="none" stroke="black" points="376,-814.5 538,-814.5 "/>
<text text-anchor="start" x="384" y="-799.3" font-family="Times New Roman,serif" font-size="14.00">getTimerVal()</text>
<text text-anchor="start" x="384" y="-784.3" font-family="Times New Roman,serif" font-size="14.00">error()</text>
</g>
<!-- website/archvis/lib/main.js&#45;&gt;website/archvis/lib/controllers/treeClass.js -->
<g id="edge32" class="edge"><title>website/archvis/lib/main.js&#45;&gt;website/archvis/lib/controllers/treeClass.js</title>
<path fill="none" stroke="black" d="M426.92,-776.252C409.286,-677.616 386.511,-550.728 366,-438 357.612,-391.901 348.228,-340.924 340.208,-297.537"/>
<polygon fill="black" stroke="black" points="343.62,-296.74 338.36,-287.543 336.737,-298.012 343.62,-296.74"/>
<text text-anchor="middle" x="383" y="-408.3" font-family="Times New Roman,serif" font-size="14.00">«js2js»</text>
</g>
<!-- website/archvis/lib/main.js&#45;&gt;website/archvis/lib/controllers/tableClass.js -->
<g id="edge34" class="edge"><title>website/archvis/lib/main.js&#45;&gt;website/archvis/lib/controllers/tableClass.js</title>
<path fill="none" stroke="black" d="M487.297,-776.461C507.599,-663.52 534.431,-514.254 555.85,-395.103"/>
<polygon fill="black" stroke="black" points="559.318,-395.589 557.643,-385.127 552.429,-394.35 559.318,-395.589"/>
<text text-anchor="middle" x="573" y="-408.3" font-family="Times New Roman,serif" font-size="14.00">«js2js»</text>
</g>
<!-- website/archvis/app/index.html -->
<g id="node8" class="node"><title>website/archvis/app/index.html</title>
<polygon fill="lavenderblush" stroke="black" points="4436,-927 4436,-965 4624,-965 4624,-927 4436,-927"/>
<text text-anchor="middle" x="4530" y="-949.8" font-family="Times New Roman,serif" font-size="14.00">«HTML»</text>
<text text-anchor="middle" x="4530" y="-934.8" font-family="Times New Roman,serif" font-size="14.00">website/archvis/app/index.html</text>
</g>
<!-- bower_components/jquery&#45;ui/themes/base/jquery&#45;ui.css -->
<g id="node19" class="node"><title>bower_components/jquery&#45;ui/themes/base/jquery&#45;ui.css</title>
<ellipse fill="none" stroke="black" cx="951" cy="-193" rx="213.272" ry="18"/>
<text text-anchor="middle" x="951" y="-189.3" font-family="Times New Roman,serif" font-size="14.00">bower_components/jquery&#45;ui/themes/base/jquery&#45;ui.css</text>
</g>
<!-- website/archvis/app/index.html&#45;&gt;bower_components/jquery&#45;ui/themes/base/jquery&#45;ui.css -->
<g id="edge2" class="edge"><title>website/archvis/app/index.html&#45;&gt;bower_components/jquery&#45;ui/themes/base/jquery&#45;ui.css</title>
<path fill="none" stroke="black" d="M4506.39,-926.774C4403.46,-848.597 3980.91,-540.959 3576,-438 3474.13,-412.096 1789.04,-423.991 1684,-420 1456.55,-411.358 1383.54,-472.483 1173,-386 1083.96,-349.425 1005.44,-262.281 970.405,-219.115"/>
<polygon fill="black" stroke="black" points="972.968,-216.716 963.987,-211.096 967.503,-221.09 972.968,-216.716"/>
<text text-anchor="middle" x="1701.5" y="-408.3" font-family="Times New Roman,serif" font-size="14.00">«link»</text>
</g>
<!-- bower_components/jquery.layout/dist/layout&#45;default&#45;latest.css -->
<g id="node20" class="node"><title>bower_components/jquery.layout/dist/layout&#45;default&#45;latest.css</title>
<ellipse fill="none" stroke="black" cx="1418" cy="-193" rx="235.394" ry="18"/>
<text text-anchor="middle" x="1418" y="-189.3" font-family="Times New Roman,serif" font-size="14.00">bower_components/jquery.layout/dist/layout&#45;default&#45;latest.css</text>
</g>
<!-- website/archvis/app/index.html&#45;&gt;bower_components/jquery.layout/dist/layout&#45;default&#45;latest.css -->
<g id="edge4" class="edge"><title>website/archvis/app/index.html&#45;&gt;bower_components/jquery.layout/dist/layout&#45;default&#45;latest.css</title>
<path fill="none" stroke="black" d="M4506.38,-926.807C4403.41,-848.77 3980.74,-541.625 3576,-438 3500.32,-418.625 2248.06,-423.115 2170,-420 1944.34,-410.996 1873.89,-466.789 1663,-386 1567.27,-349.329 1478.89,-261.583 1439.53,-218.589"/>
<polygon fill="black" stroke="black" points="1442.06,-216.173 1432.76,-211.104 1436.87,-220.868 1442.06,-216.173"/>
<text text-anchor="middle" x="2187.5" y="-408.3" font-family="Times New Roman,serif" font-size="14.00">«link»</text>
</g>
<!-- bower_components/fontawesome/css/font&#45;awesome.min.css -->
<g id="node21" class="node"><title>bower_components/fontawesome/css/font&#45;awesome.min.css</title>
<ellipse fill="none" stroke="black" cx="1905" cy="-193" rx="232.519" ry="18"/>
<text text-anchor="middle" x="1905" y="-189.3" font-family="Times New Roman,serif" font-size="14.00">bower_components/fontawesome/css/font&#45;awesome.min.css</text>
</g>
<!-- website/archvis/app/index.html&#45;&gt;bower_components/fontawesome/css/font&#45;awesome.min.css -->
<g id="edge6" class="edge"><title>website/archvis/app/index.html&#45;&gt;bower_components/fontawesome/css/font&#45;awesome.min.css</title>
<path fill="none" stroke="black" d="M4506.36,-926.881C4403.32,-849.148 3980.36,-543.08 3576,-438 3479.2,-412.844 2775.93,-424.209 2676,-420 2440.61,-410.087 2366.87,-470.633 2147,-386 2052.06,-349.454 1964.94,-261.648 1926.19,-218.614"/>
<polygon fill="black" stroke="black" points="1928.78,-216.267 1919.52,-211.122 1923.55,-220.92 1928.78,-216.267"/>
<text text-anchor="middle" x="2693.5" y="-408.3" font-family="Times New Roman,serif" font-size="14.00">«link»</text>
</g>
<!-- bower_components/fancytree/dist/skin&#45;win8/ui.fancytree.min.css -->
<g id="node22" class="node"><title>bower_components/fancytree/dist/skin&#45;win8/ui.fancytree.min.css</title>
<ellipse fill="none" stroke="black" cx="2402" cy="-193" rx="245.992" ry="18"/>
<text text-anchor="middle" x="2402" y="-189.3" font-family="Times New Roman,serif" font-size="14.00">bower_components/fancytree/dist/skin&#45;win8/ui.fancytree.min.css</text>
</g>
<!-- website/archvis/app/index.html&#45;&gt;bower_components/fancytree/dist/skin&#45;win8/ui.fancytree.min.css -->
<g id="edge8" class="edge"><title>website/archvis/app/index.html&#45;&gt;bower_components/fancytree/dist/skin&#45;win8/ui.fancytree.min.css</title>
<path fill="none" stroke="black" d="M4505.95,-926.849C4402.06,-849.634 3978.72,-547.445 3576,-438 3484.57,-413.151 3244.61,-425.26 3150,-420 2930.71,-407.807 2862.77,-462.778 2657,-386 2558.51,-349.252 2465.97,-261.543 2424.64,-218.573"/>
<polygon fill="black" stroke="black" points="2426.95,-215.929 2417.53,-211.093 2421.88,-220.752 2426.95,-215.929"/>
<text text-anchor="middle" x="3167.5" y="-408.3" font-family="Times New Roman,serif" font-size="14.00">«link»</text>
</g>
<!-- bower_components/bootstrap/dist/css/bootstrap.min.css -->
<g id="node23" class="node"><title>bower_components/bootstrap/dist/css/bootstrap.min.css</title>
<ellipse fill="none" stroke="black" cx="2885" cy="-193" rx="219.046" ry="18"/>
<text text-anchor="middle" x="2885" y="-189.3" font-family="Times New Roman,serif" font-size="14.00">bower_components/bootstrap/dist/css/bootstrap.min.css</text>
</g>
<!-- website/archvis/app/index.html&#45;&gt;bower_components/bootstrap/dist/css/bootstrap.min.css -->
<g id="edge10" class="edge"><title>website/archvis/app/index.html&#45;&gt;bower_components/bootstrap/dist/css/bootstrap.min.css</title>
<path fill="none" stroke="black" d="M4504.68,-926.807C4398.12,-851.319 3973.32,-560.978 3576,-438 3477.09,-407.387 3208.12,-426.878 3113,-386 3023.22,-347.42 2941.84,-261.291 2905.31,-218.75"/>
<polygon fill="black" stroke="black" points="2907.95,-216.456 2898.82,-211.092 2902.61,-220.983 2907.95,-216.456"/>
<text text-anchor="middle" x="3447.5" y="-408.3" font-family="Times New Roman,serif" font-size="14.00">«link»</text>
</g>
<!-- http://fonts.googleapis.com/css?family=Lobster -->
<g id="node24" class="node"><title>http://fonts.googleapis.com/css?family=Lobster</title>
<ellipse fill="none" stroke="black" cx="3307" cy="-193" rx="184.375" ry="18"/>
<text text-anchor="middle" x="3307" y="-189.3" font-family="Times New Roman,serif" font-size="14.00">http://fonts.googleapis.com/css?family=Lobster</text>
</g>
<!-- website/archvis/app/index.html&#45;&gt;http://fonts.googleapis.com/css?family=Lobster -->
<g id="edge12" class="edge"><title>website/archvis/app/index.html&#45;&gt;http://fonts.googleapis.com/css?family=Lobster</title>
<path fill="none" stroke="black" d="M4493.55,-926.945C4332.35,-846.84 3683.48,-521.559 3501,-386 3431.04,-334.028 3361.47,-257.633 3327.84,-218.733"/>
<polygon fill="black" stroke="black" points="3330.39,-216.331 3321.22,-211.023 3325.08,-220.891 3330.39,-216.331"/>
<text text-anchor="middle" x="3562.5" y="-408.3" font-family="Times New Roman,serif" font-size="14.00">«link»</text>
</g>
<!-- bower_components/codemirror/lib/codemirror.css -->
<g id="node25" class="node"><title>bower_components/codemirror/lib/codemirror.css</title>
<ellipse fill="none" stroke="black" cx="3705" cy="-193" rx="194.474" ry="18"/>
<text text-anchor="middle" x="3705" y="-189.3" font-family="Times New Roman,serif" font-size="14.00">bower_components/codemirror/lib/codemirror.css</text>
</g>
<!-- website/archvis/app/index.html&#45;&gt;bower_components/codemirror/lib/codemirror.css -->
<g id="edge14" class="edge"><title>website/archvis/app/index.html&#45;&gt;bower_components/codemirror/lib/codemirror.css</title>
<path fill="none" stroke="black" d="M4509.48,-926.827C4431.03,-857.281 4142.74,-601.144 3909,-386 3844.19,-326.343 3768.97,-254.996 3730.52,-218.36"/>
<polygon fill="black" stroke="black" points="3732.54,-215.452 3722.89,-211.086 3727.71,-220.519 3732.54,-215.452"/>
<text text-anchor="middle" x="3960.5" y="-408.3" font-family="Times New Roman,serif" font-size="14.00">«link»</text>
</g>
<!-- bower_components/bootstrap/dist/css/bootstrap&#45;theme.min.css -->
<g id="node26" class="node"><title>bower_components/bootstrap/dist/css/bootstrap&#45;theme.min.css</title>
<ellipse fill="none" stroke="black" cx="4161" cy="-193" rx="243.118" ry="18"/>
<text text-anchor="middle" x="4161" y="-189.3" font-family="Times New Roman,serif" font-size="14.00">bower_components/bootstrap/dist/css/bootstrap&#45;theme.min.css</text>
</g>
<!-- website/archvis/app/index.html&#45;&gt;bower_components/bootstrap/dist/css/bootstrap&#45;theme.min.css -->
<g id="edge16" class="edge"><title>website/archvis/app/index.html&#45;&gt;bower_components/bootstrap/dist/css/bootstrap&#45;theme.min.css</title>
<path fill="none" stroke="black" d="M4521.06,-926.808C4471.71,-826.366 4232.64,-339.808 4174,-220.468"/>
<polygon fill="black" stroke="black" points="4177.05,-218.722 4169.5,-211.29 4170.76,-221.809 4177.05,-218.722"/>
<text text-anchor="middle" x="4288.5" y="-408.3" font-family="Times New Roman,serif" font-size="14.00">«link»</text>
</g>
<!-- styles/bootstrap&#45;theme.css -->
<g id="node27" class="node"><title>styles/bootstrap&#45;theme.css</title>
<ellipse fill="none" stroke="black" cx="4530" cy="-193" rx="107.336" ry="18"/>
<text text-anchor="middle" x="4530" y="-189.3" font-family="Times New Roman,serif" font-size="14.00">styles/bootstrap&#45;theme.css</text>
</g>
<!-- website/archvis/app/index.html&#45;&gt;styles/bootstrap&#45;theme.css -->
<g id="edge18" class="edge"><title>website/archvis/app/index.html&#45;&gt;styles/bootstrap&#45;theme.css</title>
<path fill="none" stroke="black" d="M4530,-926.808C4530,-826.668 4530,-342.735 4530,-221.556"/>
<polygon fill="black" stroke="black" points="4533.5,-221.29 4530,-211.29 4526.5,-221.291 4533.5,-221.29"/>
<text text-anchor="middle" x="4547.5" y="-408.3" font-family="Times New Roman,serif" font-size="14.00">«link»</text>
</g>
<!-- bower_components/datatables/media/css/jquery.dataTables.css -->
<g id="node28" class="node"><title>bower_components/datatables/media/css/jquery.dataTables.css</title>
<ellipse fill="none" stroke="black" cx="4898" cy="-193" rx="241.168" ry="18"/>
<text text-anchor="middle" x="4898" y="-189.3" font-family="Times New Roman,serif" font-size="14.00">bower_components/datatables/media/css/jquery.dataTables.css</text>
</g>
<!-- website/archvis/app/index.html&#45;&gt;bower_components/datatables/media/css/jquery.dataTables.css -->
<g id="edge20" class="edge"><title>website/archvis/app/index.html&#45;&gt;bower_components/datatables/media/css/jquery.dataTables.css</title>
<path fill="none" stroke="black" d="M4529.78,-926.554C4529.72,-857.424 4536.59,-608.941 4633,-438 4689.84,-337.225 4802.92,-254.675 4861.27,-216.638"/>
<polygon fill="black" stroke="black" points="4863.3,-219.495 4869.81,-211.136 4859.51,-213.611 4863.3,-219.495"/>
<text text-anchor="middle" x="4671.5" y="-408.3" font-family="Times New Roman,serif" font-size="14.00">«link»</text>
</g>
<!-- bower_components/iviewer/jquery.iviewer.css -->
<g id="node29" class="node"><title>bower_components/iviewer/jquery.iviewer.css</title>
<ellipse fill="none" stroke="black" cx="5337" cy="-193" rx="178.601" ry="18"/>
<text text-anchor="middle" x="5337" y="-189.3" font-family="Times New Roman,serif" font-size="14.00">bower_components/iviewer/jquery.iviewer.css</text>
</g>
<!-- website/archvis/app/index.html&#45;&gt;bower_components/iviewer/jquery.iviewer.css -->
<g id="edge22" class="edge"><title>website/archvis/app/index.html&#45;&gt;bower_components/iviewer/jquery.iviewer.css</title>
<path fill="none" stroke="black" d="M4527.03,-926.881C4516.06,-852.898 4485.65,-571.335 4633,-438 4675.65,-399.411 5096.14,-410.858 5148,-386 5227.15,-348.063 5291.82,-262.579 5320.7,-219.637"/>
<polygon fill="black" stroke="black" points="5323.72,-221.423 5326.32,-211.152 5317.88,-217.561 5323.72,-221.423"/>
<text text-anchor="middle" x="4960.5" y="-408.3" font-family="Times New Roman,serif" font-size="14.00">«link»</text>
</g>
<!-- styles/main.css -->
<g id="node30" class="node"><title>styles/main.css</title>
<ellipse fill="none" stroke="black" cx="5599" cy="-193" rx="65.4659" ry="18"/>
<text text-anchor="middle" x="5599" y="-189.3" font-family="Times New Roman,serif" font-size="14.00">styles/main.css</text>
</g>
<!-- website/archvis/app/index.html&#45;&gt;styles/main.css -->
<g id="edge24" class="edge"><title>website/archvis/app/index.html&#45;&gt;styles/main.css</title>
<path fill="none" stroke="black" d="M4526.89,-926.931C4515.26,-852.547 4482.25,-567.825 4633,-438 4647.71,-425.331 4962.62,-421.108 4982,-420 5102.48,-413.114 5426.52,-457.15 5524,-386 5577.43,-347.003 5592.8,-264.228 5597.22,-221.221"/>
<polygon fill="black" stroke="black" points="5600.71,-221.469 5598.13,-211.195 5593.74,-220.84 5600.71,-221.469"/>
<text text-anchor="middle" x="5506.5" y="-408.3" font-family="Times New Roman,serif" font-size="14.00">«link»</text>
</g>
<!-- bower_components/datatables&#45;fixedcolumns/css/dataTables.fixedColumns.css -->
<g id="node31" class="node"><title>bower_components/datatables&#45;fixedcolumns/css/dataTables.fixedColumns.css</title>
<ellipse fill="none" stroke="black" cx="5980" cy="-193" rx="297.51" ry="18"/>
<text text-anchor="middle" x="5980" y="-189.3" font-family="Times New Roman,serif" font-size="14.00">bower_components/datatables&#45;fixedcolumns/css/dataTables.fixedColumns.css</text>
</g>
<!-- website/archvis/app/index.html&#45;&gt;bower_components/datatables&#45;fixedcolumns/css/dataTables.fixedColumns.css -->
<g id="edge26" class="edge"><title>website/archvis/app/index.html&#45;&gt;bower_components/datatables&#45;fixedcolumns/css/dataTables.fixedColumns.css</title>
<path fill="none" stroke="black" d="M4526.78,-926.801C4514.71,-851.905 4480.23,-565.44 4633,-438 4652.09,-422.072 5503.33,-423.105 5528,-420 5593.67,-411.733 5611.89,-411.447 5673,-386 5782.39,-340.443 5897.14,-257.873 5950.05,-217.501"/>
<polygon fill="black" stroke="black" points="5952.5,-220.032 5958.29,-211.164 5948.23,-214.48 5952.5,-220.032"/>
<text text-anchor="middle" x="5639.5" y="-408.3" font-family="Times New Roman,serif" font-size="14.00">«link»</text>
</g>
<!-- bower_components/metisMenu/dist/jquery.metisMenu.css -->
<g id="node32" class="node"><title>bower_components/metisMenu/dist/jquery.metisMenu.css</title>
<ellipse fill="none" stroke="black" cx="6518" cy="-193" rx="221.921" ry="18"/>
<text text-anchor="middle" x="6518" y="-189.3" font-family="Times New Roman,serif" font-size="14.00">bower_components/metisMenu/dist/jquery.metisMenu.css</text>
</g>
<!-- website/archvis/app/index.html&#45;&gt;bower_components/metisMenu/dist/jquery.metisMenu.css -->
<g id="edge28" class="edge"><title>website/archvis/app/index.html&#45;&gt;bower_components/metisMenu/dist/jquery.metisMenu.css</title>
<path fill="none" stroke="black" d="M4526.77,-926.791C4514.67,-851.851 4480.06,-565.242 4633,-438 4654.95,-419.734 5632.46,-421.026 5661,-420 5800,-415.004 6156.46,-436.667 6286,-386 6378.17,-349.949 6460.88,-262.23 6497.73,-218.968"/>
<polygon fill="black" stroke="black" points="6500.52,-221.09 6504.27,-211.183 6495.16,-216.587 6500.52,-221.09"/>
<text text-anchor="middle" x="6225.5" y="-408.3" font-family="Times New Roman,serif" font-size="14.00">«link»</text>
</g>
<!-- styles/menu.css -->
<g id="node33" class="node"><title>styles/menu.css</title>
<ellipse fill="none" stroke="black" cx="6826" cy="-193" rx="67.3907" ry="18"/>
<text text-anchor="middle" x="6826" y="-189.3" font-family="Times New Roman,serif" font-size="14.00">styles/menu.css</text>
</g>
<!-- website/archvis/app/index.html&#45;&gt;styles/menu.css -->
<g id="edge30" class="edge"><title>website/archvis/app/index.html&#45;&gt;styles/menu.css</title>
<path fill="none" stroke="black" d="M4526.75,-926.764C4514.56,-851.72 4479.66,-564.755 4633,-438 4650.28,-423.717 6224.6,-420.883 6247,-420 6358.72,-415.597 6658.56,-451.738 6749,-386 6802.7,-346.971 6818.99,-264.211 6823.91,-221.214"/>
<polygon fill="black" stroke="black" points="6827.4,-221.493 6824.93,-211.19 6820.43,-220.785 6827.4,-221.493"/>
<text text-anchor="middle" x="6725.5" y="-408.3" font-family="Times New Roman,serif" font-size="14.00">«link»</text>
</g>
<!-- [form &#160;2] -->
<g id="node34" class="node"><title>[form &#160;2]</title>
<ellipse fill="none" stroke="black" cx="6955" cy="-193" rx="43.319" ry="18"/>
<text text-anchor="middle" x="6955" y="-189.3" font-family="Times New Roman,serif" font-size="14.00">[form &#160;2]</text>
</g>
<!-- website/archvis/app/index.html&#45;&gt;[form &#160;2] -->
<g id="edge36" class="edge"><title>website/archvis/app/index.html&#45;&gt;[form &#160;2]</title>
<path fill="none" stroke="black" d="M4526.74,-926.753C4514.52,-851.666 4479.49,-564.553 4633,-438 4655.66,-419.323 6717.82,-423.288 6747,-420 6817.08,-412.102 6850.82,-434.521 6902,-386 6947.84,-342.541 6955.25,-263.34 6955.73,-221.535"/>
<polygon fill="black" stroke="black" points="6959.23,-221.271 6955.72,-211.276 6952.23,-221.281 6959.23,-221.271"/>
<text text-anchor="middle" x="6920.5" y="-408.3" font-family="Times New Roman,serif" font-size="14.00">«composition»</text>
</g>
<!-- [form navbar&#45;form 1] -->
<g id="node35" class="node"><title>[form navbar&#45;form 1]</title>
<ellipse fill="none" stroke="black" cx="7105" cy="-193" rx="88.0886" ry="18"/>
<text text-anchor="middle" x="7105" y="-189.3" font-family="Times New Roman,serif" font-size="14.00">[form navbar&#45;form 1]</text>
</g>
<!-- website/archvis/app/index.html&#45;&gt;[form navbar&#45;form 1] -->
<g id="edge38" class="edge"><title>website/archvis/app/index.html&#45;&gt;[form navbar&#45;form 1]</title>
<path fill="none" stroke="black" d="M4526.74,-926.75C4514.5,-851.649 4479.44,-564.491 4633,-438 4683.04,-396.778 6906.23,-442.603 6967,-420 7051.05,-388.737 7087.13,-273.905 7099.55,-221.007"/>
<polygon fill="black" stroke="black" points="7103.02,-221.526 7101.79,-211.003 7096.19,-219.998 7103.02,-221.526"/>
<text text-anchor="middle" x="7033.5" y="-408.3" font-family="Times New Roman,serif" font-size="14.00">«composition»</text>
</g>
<!-- website/archvis/app/scripts/wheelzoom.js -->
<g id="node9" class="node"><title>website/archvis/app/scripts/wheelzoom.js</title>
<polygon fill="aliceblue" stroke="black" points="4642,-769 4642,-1123 4890,-1123 4890,-769 4642,-769"/>
<text text-anchor="middle" x="4766" y="-1107.8" font-family="Times New Roman,serif" font-size="14.00">«JavaScript»</text>
<text text-anchor="middle" x="4766" y="-1092.8" font-family="Times New Roman,serif" font-size="14.00">website/archvis/app/scripts/wheelzoom.js</text>
<polyline fill="none" stroke="black" points="4642,-1085 4890,-1085 "/>
<text text-anchor="start" x="4650" y="-1069.8" font-family="Times New Roman,serif" font-size="14.00">canvas</text>
<text text-anchor="start" x="4650" y="-1054.8" font-family="Times New Roman,serif" font-size="14.00">width</text>
<text text-anchor="start" x="4650" y="-1039.8" font-family="Times New Roman,serif" font-size="14.00">height</text>
<text text-anchor="start" x="4650" y="-1024.8" font-family="Times New Roman,serif" font-size="14.00">bgWidth</text>
<text text-anchor="start" x="4650" y="-1009.8" font-family="Times New Roman,serif" font-size="14.00">bgHeight</text>
<text text-anchor="start" x="4650" y="-994.8" font-family="Times New Roman,serif" font-size="14.00">bgPosX</text>
<text text-anchor="start" x="4650" y="-979.8" font-family="Times New Roman,serif" font-size="14.00">bgPosY</text>
<text text-anchor="start" x="4650" y="-964.8" font-family="Times New Roman,serif" font-size="14.00">previousEvent</text>
<text text-anchor="start" x="4650" y="-949.8" font-family="Times New Roman,serif" font-size="14.00">deltaY</text>
<text text-anchor="start" x="4650" y="-934.8" font-family="Times New Roman,serif" font-size="14.00">rect</text>
<text text-anchor="start" x="4650" y="-919.8" font-family="Times New Roman,serif" font-size="14.00">computedStyle</text>
<polyline fill="none" stroke="black" points="4642,-912 4890,-912 "/>
<text text-anchor="start" x="4650" y="-896.8" font-family="Times New Roman,serif" font-size="14.00">setSrcToBackground()</text>
<text text-anchor="start" x="4650" y="-881.8" font-family="Times New Roman,serif" font-size="14.00">updateBgStyle()</text>
<text text-anchor="start" x="4650" y="-866.8" font-family="Times New Roman,serif" font-size="14.00">reset()</text>
<text text-anchor="start" x="4650" y="-851.8" font-family="Times New Roman,serif" font-size="14.00">onwheel()</text>
<text text-anchor="start" x="4650" y="-836.8" font-family="Times New Roman,serif" font-size="14.00">drag()</text>
<text text-anchor="start" x="4650" y="-821.8" font-family="Times New Roman,serif" font-size="14.00">removeDrag()</text>
<text text-anchor="start" x="4650" y="-806.8" font-family="Times New Roman,serif" font-size="14.00">draggable()</text>
<text text-anchor="start" x="4650" y="-791.8" font-family="Times New Roman,serif" font-size="14.00">loaded()</text>
<text text-anchor="start" x="4650" y="-776.8" font-family="Times New Roman,serif" font-size="14.00">onload()</text>
</g>
<!-- website/archvis/app/scripts/controllers/graph.js -->
<g id="node10" class="node"><title>website/archvis/app/scripts/controllers/graph.js</title>
<polygon fill="aliceblue" stroke="black" points="4908.5,-439 4908.5,-1453 5187.5,-1453 5187.5,-439 4908.5,-439"/>
<text text-anchor="middle" x="5048" y="-1437.8" font-family="Times New Roman,serif" font-size="14.00">«JavaScript»</text>
<text text-anchor="middle" x="5048" y="-1422.8" font-family="Times New Roman,serif" font-size="14.00">website/archvis/app/scripts/controllers/graph.js</text>
<polyline fill="none" stroke="black" points="4908.5,-1415 5187.5,-1415 "/>
<text text-anchor="start" x="4916.5" y="-1399.8" font-family="Times New Roman,serif" font-size="14.00">filePath</text>
<text text-anchor="start" x="4916.5" y="-1384.8" font-family="Times New Roman,serif" font-size="14.00">foundId</text>
<text text-anchor="start" x="4916.5" y="-1369.8" font-family="Times New Roman,serif" font-size="14.00">multiplier</text>
<text text-anchor="start" x="4916.5" y="-1354.8" font-family="Times New Roman,serif" font-size="14.00">key</text>
<text text-anchor="start" x="4916.5" y="-1339.8" font-family="Times New Roman,serif" font-size="14.00">newKey</text>
<text text-anchor="start" x="4916.5" y="-1324.8" font-family="Times New Roman,serif" font-size="14.00">targetKey</text>
<text text-anchor="start" x="4916.5" y="-1309.8" font-family="Times New Roman,serif" font-size="14.00">sourceKey</text>
<text text-anchor="start" x="4916.5" y="-1294.8" font-family="Times New Roman,serif" font-size="14.00">legend</text>
<text text-anchor="start" x="4916.5" y="-1279.8" font-family="Times New Roman,serif" font-size="14.00">legendRect</text>
<text text-anchor="start" x="4916.5" y="-1264.8" font-family="Times New Roman,serif" font-size="14.00">w</text>
<text text-anchor="start" x="4916.5" y="-1249.8" font-family="Times New Roman,serif" font-size="14.00">legendText</text>
<text text-anchor="start" x="4916.5" y="-1234.8" font-family="Times New Roman,serif" font-size="14.00">force</text>
<text text-anchor="start" x="4916.5" y="-1219.8" font-family="Times New Roman,serif" font-size="14.00">svg</text>
<text text-anchor="start" x="4916.5" y="-1204.8" font-family="Times New Roman,serif" font-size="14.00">hullg</text>
<text text-anchor="start" x="4916.5" y="-1189.8" font-family="Times New Roman,serif" font-size="14.00">path</text>
<text text-anchor="start" x="4916.5" y="-1174.8" font-family="Times New Roman,serif" font-size="14.00">hulls</text>
<text text-anchor="start" x="4916.5" y="-1159.8" font-family="Times New Roman,serif" font-size="14.00">node_drag</text>
<text text-anchor="start" x="4916.5" y="-1144.8" font-family="Times New Roman,serif" font-size="14.00">i</text>
<text text-anchor="start" x="4916.5" y="-1129.8" font-family="Times New Roman,serif" font-size="14.00">k</text>
<text text-anchor="start" x="4916.5" y="-1114.8" font-family="Times New Roman,serif" font-size="14.00">gnode</text>
<text text-anchor="start" x="4916.5" y="-1099.8" font-family="Times New Roman,serif" font-size="14.00">node</text>
<text text-anchor="start" x="4916.5" y="-1084.8" font-family="Times New Roman,serif" font-size="14.00">tickCount</text>
<text text-anchor="start" x="4916.5" y="-1069.8" font-family="Times New Roman,serif" font-size="14.00">hullRed</text>
<text text-anchor="start" x="4916.5" y="-1054.8" font-family="Times New Roman,serif" font-size="14.00">hullBlue</text>
<text text-anchor="start" x="4916.5" y="-1039.8" font-family="Times New Roman,serif" font-size="14.00">dr</text>
<text text-anchor="start" x="4916.5" y="-1024.8" font-family="Times New Roman,serif" font-size="14.00">padding</text>
<text text-anchor="start" x="4916.5" y="-1009.8" font-family="Times New Roman,serif" font-size="14.00">radius</text>
<text text-anchor="start" x="4916.5" y="-994.8" font-family="Times New Roman,serif" font-size="14.00">quadtree</text>
<text text-anchor="start" x="4916.5" y="-979.8" font-family="Times New Roman,serif" font-size="14.00">l</text>
<text text-anchor="start" x="4916.5" y="-964.8" font-family="Times New Roman,serif" font-size="14.00">zoomListener</text>
<text text-anchor="start" x="4916.5" y="-949.8" font-family="Times New Roman,serif" font-size="14.00">allFiles</text>
<text text-anchor="start" x="4916.5" y="-934.8" font-family="Times New Roman,serif" font-size="14.00">currentSize</text>
<text text-anchor="start" x="4916.5" y="-919.8" font-family="Times New Roman,serif" font-size="14.00">text</text>
<text text-anchor="start" x="4916.5" y="-904.8" font-family="Times New Roman,serif" font-size="14.00">icon</text>
<text text-anchor="start" x="4916.5" y="-889.8" font-family="Times New Roman,serif" font-size="14.00">code</text>
<text text-anchor="start" x="4916.5" y="-874.8" font-family="Times New Roman,serif" font-size="14.00">xmlString</text>
<text text-anchor="start" x="4916.5" y="-859.8" font-family="Times New Roman,serif" font-size="14.00">hex</text>
<polyline fill="none" stroke="black" points="4908.5,-852 5187.5,-852 "/>
<text text-anchor="start" x="4916.5" y="-836.8" font-family="Times New Roman,serif" font-size="14.00">sorting()</text>
<text text-anchor="start" x="4916.5" y="-821.8" font-family="Times New Roman,serif" font-size="14.00">getGraphData()</text>
<text text-anchor="start" x="4916.5" y="-806.8" font-family="Times New Roman,serif" font-size="14.00">onDoubleClickNode()</text>
<text text-anchor="start" x="4916.5" y="-791.8" font-family="Times New Roman,serif" font-size="14.00">onMouseOverNode()</text>
<text text-anchor="start" x="4916.5" y="-776.8" font-family="Times New Roman,serif" font-size="14.00">addNode()</text>
<text text-anchor="start" x="4916.5" y="-761.8" font-family="Times New Roman,serif" font-size="14.00">changeFilter()</text>
<text text-anchor="start" x="4916.5" y="-746.8" font-family="Times New Roman,serif" font-size="14.00">regenGraph()</text>
<text text-anchor="start" x="4916.5" y="-731.8" font-family="Times New Roman,serif" font-size="14.00">success()</text>
<text text-anchor="start" x="4916.5" y="-716.8" font-family="Times New Roman,serif" font-size="14.00">generateGraph()</text>
<text text-anchor="start" x="4916.5" y="-701.8" font-family="Times New Roman,serif" font-size="14.00">initializeForce()</text>
<text text-anchor="start" x="4916.5" y="-686.8" font-family="Times New Roman,serif" font-size="14.00">createLegend()</text>
<text text-anchor="start" x="4916.5" y="-671.8" font-family="Times New Roman,serif" font-size="14.00">drawGraph()</text>
<text text-anchor="start" x="4916.5" y="-656.8" font-family="Times New Roman,serif" font-size="14.00">change()</text>
<text text-anchor="start" x="4916.5" y="-641.8" font-family="Times New Roman,serif" font-size="14.00">select()</text>
<text text-anchor="start" x="4916.5" y="-626.8" font-family="Times New Roman,serif" font-size="14.00">dragstart()</text>
<text text-anchor="start" x="4916.5" y="-611.8" font-family="Times New Roman,serif" font-size="14.00">dragmove()</text>
<text text-anchor="start" x="4916.5" y="-596.8" font-family="Times New Roman,serif" font-size="14.00">dragend()</text>
<text text-anchor="start" x="4916.5" y="-581.8" font-family="Times New Roman,serif" font-size="14.00">convexHulls()</text>
<text text-anchor="start" x="4916.5" y="-566.8" font-family="Times New Roman,serif" font-size="14.00">getGroup()</text>
<text text-anchor="start" x="4916.5" y="-551.8" font-family="Times New Roman,serif" font-size="14.00">tick()</text>
<text text-anchor="start" x="4916.5" y="-536.8" font-family="Times New Roman,serif" font-size="14.00">collideDetect()</text>
<text text-anchor="start" x="4916.5" y="-521.8" font-family="Times New Roman,serif" font-size="14.00">moveHandler()</text>
<text text-anchor="start" x="4916.5" y="-506.8" font-family="Times New Roman,serif" font-size="14.00">zoomHandler()</text>
<text text-anchor="start" x="4916.5" y="-491.8" font-family="Times New Roman,serif" font-size="14.00">collide()</text>
<text text-anchor="start" x="4916.5" y="-476.8" font-family="Times New Roman,serif" font-size="14.00">drawCluster()</text>
<text text-anchor="start" x="4916.5" y="-461.8" font-family="Times New Roman,serif" font-size="14.00">componentToHex()</text>
<text text-anchor="start" x="4916.5" y="-446.8" font-family="Times New Roman,serif" font-size="14.00">rgbToHex()</text>
</g>
<!-- website/archvis/app/views/404.html -->
<g id="node11" class="node"><title>website/archvis/app/views/404.html</title>
<polygon fill="lavenderblush" stroke="black" points="5206,-927 5206,-965 5420,-965 5420,-927 5206,-927"/>
<text text-anchor="middle" x="5313" y="-949.8" font-family="Times New Roman,serif" font-size="14.00">«HTML»</text>
<text text-anchor="middle" x="5313" y="-934.8" font-family="Times New Roman,serif" font-size="14.00">website/archvis/app/views/404.html</text>
</g>
<!-- website/archvis/app/scripts/controllers/tableau.js -->
<g id="node12" class="node"><title>website/archvis/app/scripts/controllers/tableau.js</title>
<polygon fill="aliceblue" stroke="black" points="5438.5,-903.5 5438.5,-988.5 5725.5,-988.5 5725.5,-903.5 5438.5,-903.5"/>
<text text-anchor="middle" x="5582" y="-973.3" font-family="Times New Roman,serif" font-size="14.00">«JavaScript»</text>
<text text-anchor="middle" x="5582" y="-958.3" font-family="Times New Roman,serif" font-size="14.00">website/archvis/app/scripts/controllers/tableau.js</text>
<polyline fill="none" stroke="black" points="5438.5,-950.5 5725.5,-950.5 "/>
<text text-anchor="start" x="5446.5" y="-935.3" font-family="Times New Roman,serif" font-size="14.00">table</text>
<polyline fill="none" stroke="black" points="5438.5,-927.5 5725.5,-927.5 "/>
</g>
<!-- website/archvis/app/scripts/controllers/main.js -->
<g id="node13" class="node"><title>website/archvis/app/scripts/controllers/main.js</title>
<polygon fill="aliceblue" stroke="black" points="5744,-903 5744,-989 6018,-989 6018,-903 5744,-903"/>
<text text-anchor="middle" x="5881" y="-973.8" font-family="Times New Roman,serif" font-size="14.00">«JavaScript»</text>
<text text-anchor="middle" x="5881" y="-958.8" font-family="Times New Roman,serif" font-size="14.00">website/archvis/app/scripts/controllers/main.js</text>
<polyline fill="none" stroke="black" points="5744,-951 6018,-951 "/>
<polyline fill="none" stroke="black" points="5744,-927 6018,-927 "/>
</g>
<!-- website/archvis/app/views/partials/graph.html -->
<g id="node14" class="node"><title>website/archvis/app/views/partials/graph.html</title>
<polygon fill="lavenderblush" stroke="black" points="6036.5,-927 6036.5,-965 6305.5,-965 6305.5,-927 6036.5,-927"/>
<text text-anchor="middle" x="6171" y="-949.8" font-family="Times New Roman,serif" font-size="14.00">«HTML»</text>
<text text-anchor="middle" x="6171" y="-934.8" font-family="Times New Roman,serif" font-size="14.00">website/archvis/app/views/partials/graph.html</text>
</g>
<!-- website/archvis/app/views/partials/classDiagram.html -->
<g id="node15" class="node"><title>website/archvis/app/views/partials/classDiagram.html</title>
<polygon fill="lavenderblush" stroke="black" points="6323.5,-927 6323.5,-965 6634.5,-965 6634.5,-927 6323.5,-927"/>
<text text-anchor="middle" x="6479" y="-949.8" font-family="Times New Roman,serif" font-size="14.00">«HTML»</text>
<text text-anchor="middle" x="6479" y="-934.8" font-family="Times New Roman,serif" font-size="14.00">website/archvis/app/views/partials/classDiagram.html</text>
</g>
<!-- website/archvis/app/scripts/controllers/classDiagram.js -->
<g id="node16" class="node"><title>website/archvis/app/scripts/controllers/classDiagram.js</title>
<polygon fill="aliceblue" stroke="black" points="6653,-903 6653,-989 6975,-989 6975,-903 6653,-903"/>
<text text-anchor="middle" x="6814" y="-973.8" font-family="Times New Roman,serif" font-size="14.00">«JavaScript»</text>
<text text-anchor="middle" x="6814" y="-958.8" font-family="Times New Roman,serif" font-size="14.00">website/archvis/app/scripts/controllers/classDiagram.js</text>
<polyline fill="none" stroke="black" points="6653,-951 6975,-951 "/>
<polyline fill="none" stroke="black" points="6653,-927 6975,-927 "/>
</g>
<!-- website/archvis/app/views/partials/tableau.html -->
<g id="node17" class="node"><title>website/archvis/app/views/partials/tableau.html</title>
<polygon fill="lavenderblush" stroke="black" points="6993,-927 6993,-965 7269,-965 7269,-927 6993,-927"/>
<text text-anchor="middle" x="7131" y="-949.8" font-family="Times New Roman,serif" font-size="14.00">«HTML»</text>
<text text-anchor="middle" x="7131" y="-934.8" font-family="Times New Roman,serif" font-size="14.00">website/archvis/app/views/partials/tableau.html</text>
</g>
<!-- website/archvis/app/views/partials/controle.html -->
<g id="node18" class="node"><title>website/archvis/app/views/partials/controle.html</title>
<polygon fill="lavenderblush" stroke="black" points="7287.5,-927 7287.5,-965 7570.5,-965 7570.5,-927 7287.5,-927"/>
<text text-anchor="middle" x="7429" y="-949.8" font-family="Times New Roman,serif" font-size="14.00">«HTML»</text>
<text text-anchor="middle" x="7429" y="-934.8" font-family="Times New Roman,serif" font-size="14.00">website/archvis/app/views/partials/controle.html</text>
</g>
</g>
</svg>
